<svg width="32" height="26" viewBox="0 0 32 26" fill="none" xmlns="http://www.w3.org/2000/svg">
<path d="M28.6665 6.66668L15.9998 14.5833L3.33317 6.66668V3.50001L15.9998 11.4167L28.6665 3.50001M28.6665 0.333344H3.33317C1.57567 0.333344 0.166504 1.74251 0.166504 3.50001V22.5C0.166504 23.3399 0.500134 24.1453 1.094 24.7392C1.68786 25.333 2.49332 25.6667 3.33317 25.6667H28.6665C29.5064 25.6667 30.3118 25.333 30.9057 24.7392C31.4995 24.1453 31.8332 23.3399 31.8332 22.5V3.50001C31.8332 2.66016 31.4995 1.8547 30.9057 1.26084C30.3118 0.666973 29.5064 0.333344 28.6665 0.333344Z" fill="#5F55D2"/>
</svg>
