<svg width="99" height="98" viewBox="0 0 99 98" fill="none" xmlns="http://www.w3.org/2000/svg">
<path d="M35.151 43.3382L35.1155 43.1052C35.0547 43.1145 35.0098 43.1425 34.9833 43.1626C34.9554 43.1837 34.9329 43.2076 34.9156 43.2282C34.8812 43.2693 34.8495 43.3195 34.8207 43.371C34.7621 43.4755 34.6967 43.6186 34.6265 43.7893C34.4853 44.1327 34.3137 44.6145 34.1251 45.1855C33.7473 46.3288 33.2956 47.846 32.8735 49.366C32.4515 50.886 32.0579 52.4126 31.7968 53.5749C31.6664 54.1552 31.5679 54.6493 31.5158 55.0079C31.4899 55.1858 31.4741 55.3388 31.4732 55.4553C31.4728 55.5122 31.4756 55.5723 31.4875 55.6266C31.4934 55.6539 31.5035 55.689 31.5226 55.7243C31.5417 55.7595 31.577 55.8084 31.6392 55.8406L31.6392 55.8406C31.64 55.841 31.6406 55.8413 31.641 55.8415L31.6482 55.845L31.6545 55.8479L31.6641 55.8521L31.6931 55.8645L31.801 55.9108C31.8952 55.9513 32.0335 56.0112 32.2111 56.0898C32.5663 56.2469 33.0785 56.4785 33.7084 56.7779C34.9683 57.3767 36.6978 58.2463 38.5809 59.3328C42.355 61.5105 46.7144 64.5418 49.1668 67.9919C49.4931 68.4608 49.844 68.7862 50.2476 68.9215C50.6618 69.0605 51.0854 68.9844 51.518 68.7489L51.518 68.749L51.5233 68.746C51.9335 68.5087 52.3784 68.1131 52.7124 67.7882C52.8814 67.6237 53.0259 67.4735 53.1282 67.3644C53.1794 67.3098 53.2201 67.2653 53.2482 67.2343L53.2805 67.1984L53.2891 67.1888L53.2914 67.1862L53.292 67.1855L53.2922 67.1853L53.2923 67.1852L53.1156 67.0292M35.151 43.3382L46.7981 49.6376L50.5424 48.1411L50.8804 48.0061L50.8654 48.3697L50.8035 49.8667L50.8035 49.8671C50.7124 51.9969 51.5766 53.1462 52.3493 53.4207C52.7299 53.5559 53.0982 53.4894 53.378 53.2309C53.6642 52.9665 53.8895 52.4701 53.8956 51.6894C53.8901 50.5927 53.7934 48.8921 53.6004 46.2006L53.6002 46.1987C53.5833 45.9312 53.5077 45.7293 53.3827 45.5751C53.2571 45.4202 53.0658 45.2943 52.7842 45.2071C52.2101 45.0295 51.3133 45.0291 50.0247 45.2257C48.7224 45.4245 47.0738 45.8022 46.3811 46.0317C44.8196 46.5959 43.6378 47.0219 42.7371 47.3103C41.8416 47.5971 41.1989 47.7565 40.7248 47.7723C40.484 47.7804 40.2734 47.7521 40.0894 47.6757C39.9023 47.598 39.7574 47.4765 39.6407 47.3212C39.4203 47.0279 39.2921 46.5966 39.1459 46.0997C38.4405 43.7733 37.0953 41.2805 35.701 39.9801C34.9995 39.3259 34.3339 39.0176 33.7601 39.1035C33.1997 39.1874 32.6196 39.6663 32.1286 40.8559C31.5344 42.3217 30.8702 44.5338 30.2747 46.6237C30.0843 47.2919 29.9007 47.9482 29.7289 48.5626C29.3659 49.8607 29.0553 50.9713 28.843 51.6112L28.8426 51.6125C28.4276 52.8393 28.1315 53.8225 27.96 54.6254C27.7881 55.43 27.7453 56.0364 27.8236 56.5154C27.9004 56.9853 28.0949 57.3409 28.4206 57.6477C28.7532 57.9612 29.2293 58.2302 29.8801 58.5068C36.4841 61.274 44.5125 67.1141 49.2902 72.6196L49.2911 72.6207C49.5871 72.9658 49.7974 73.1873 49.9815 73.3049C50.0689 73.3606 50.1408 73.3863 50.2047 73.3937C50.2672 73.4009 50.3374 73.3923 50.4251 73.356C50.6126 73.2782 50.8541 73.0851 51.2035 72.7138C51.5478 72.3479 51.9735 71.8352 52.5323 71.1502C54.8098 68.3555 57.8183 66.1654 60.4079 64.4551C61.0559 64.0272 61.6787 63.6286 62.2575 63.2582L62.2578 63.258C62.8371 62.8873 63.3714 62.5454 63.8454 62.2289C64.3197 61.9122 64.7295 61.6237 65.0603 61.3604C65.3933 61.0952 65.6348 60.8644 65.7815 60.6648C65.9461 60.4409 66.0049 60.2506 65.9989 60.0902C65.993 59.9319 65.9228 59.7683 65.7617 59.5982C65.4282 59.2463 64.7506 58.9157 63.7239 58.6449C61.6865 58.1075 58.4348 57.8452 54.3533 57.9701L54.3512 57.9701L53.5195 57.9882L53.3495 57.9919L53.2924 57.8317L52.9121 56.7657C52.7221 56.2381 52.5035 55.8789 52.2906 55.6654C52.0795 55.4535 51.8945 55.4023 51.7477 55.4281C51.5936 55.4551 51.4087 55.5792 51.2304 55.8719C51.0536 56.162 50.9003 56.5928 50.8038 57.1701C50.6426 58.1404 50.6419 58.7741 50.8858 59.2136C51.1207 59.6369 51.6237 59.9449 52.6698 60.1418L52.6704 60.1419C53.8622 60.3695 55.69 60.4687 58.3659 60.5144L58.3665 60.5144C58.8977 60.5246 59.3738 60.5483 59.7136 60.5774C59.8822 60.5918 60.0231 60.6081 60.1218 60.6259C60.168 60.6342 60.2196 60.6453 60.2623 60.6619C60.278 60.668 60.3253 60.6866 60.3662 60.7282C60.3891 60.7515 60.425 60.7973 60.4348 60.866C60.4455 60.941 60.4198 61.0037 60.3896 61.0447C60.3628 61.0812 60.315 61.1292 60.2689 61.1741C60.2171 61.2246 60.1487 61.2887 60.0671 61.3637C59.9036 61.5139 59.6825 61.712 59.4243 61.9405C58.9077 62.3979 58.2389 62.9807 57.5769 63.5546C56.9147 64.1286 56.2586 64.6943 55.7673 65.1177L55.1737 65.6292L55.0071 65.7733L54.9671 65.8081L54.8295 65.9952L54.6364 65.826L51.7297 63.2802C51.146 62.8133 50.6457 62.541 50.2649 62.4212C49.8642 62.2951 49.6721 62.3578 49.6071 62.4207C49.5535 62.4727 49.4878 62.6313 49.6429 63.0001C49.7911 63.3527 50.1157 63.8212 50.6714 64.3763L50.6717 64.3766C50.7866 64.4917 51.4356 65.1099 52.0609 65.7038C52.3725 65.9998 52.6767 66.2883 52.903 66.5029L53.1752 66.761L53.251 66.8328L53.2709 66.8517L53.276 66.8565L53.2773 66.8577L53.2776 66.858L53.2777 66.8581L53.1156 67.0292M35.151 43.3382L35.1155 43.1052C35.2041 43.0917 35.2702 43.1287 35.2985 43.1479C35.3296 43.1691 35.352 43.1935 35.3657 43.2098C35.3939 43.2436 35.4184 43.2839 35.4386 43.3207C35.4806 43.3972 35.5274 43.5016 35.576 43.6221C35.6741 43.8652 35.7896 44.199 35.9008 44.5671C36.5458 46.5928 37.0655 48.1124 37.6055 49.2108C38.1457 50.3097 38.6884 50.9488 39.358 51.26C40.0282 51.5715 40.8751 51.5775 42.0795 51.2899C43.2832 51.0025 44.8033 50.4324 46.7978 49.6377L35.151 43.3382ZM53.1156 67.0292L53.2923 67.1852L53.4429 67.0146L53.2777 66.8581L53.1156 67.0292ZM68.2416 65.3381C66.1544 66.1645 67.9015 67.9842 70.7417 67.9319C74.0537 67.8801 79.1007 67.3096 79.3711 66.9418C79.9324 66.2212 78.2207 64.3961 76.7988 64.232M68.2416 65.3381L68.3251 65.5585C68.3256 65.5583 68.3261 65.5581 68.3266 65.558M68.2416 65.3381C69.2019 64.9739 75.7477 64.1203 76.7988 64.232M68.2416 65.3381L68.3283 65.5573C68.3277 65.5575 68.3272 65.5577 68.3266 65.558M68.3266 65.558C67.8344 65.7532 67.6332 65.9822 67.5781 66.1668C67.5261 66.3413 67.5815 66.5599 67.8137 66.8011C68.2833 67.2891 69.3559 67.7217 70.7374 67.6962L70.738 67.6962C72.3846 67.6704 74.4664 67.5156 76.1703 67.3211C77.0223 67.2239 77.7757 67.1173 78.3308 67.0127C78.609 66.9603 78.8321 66.9094 78.991 66.862C79.0709 66.8381 79.1286 66.8168 79.1669 66.7991C79.1798 66.7931 79.1884 66.7885 79.1935 66.7855M68.3266 65.558C68.5417 65.4768 69.1047 65.3587 69.8753 65.2283C70.6367 65.0995 71.5746 64.9625 72.5165 64.8403C73.4583 64.7181 74.4019 64.6109 75.1745 64.5412C75.9569 64.4707 76.5372 64.4415 76.7729 64.4663M79.1935 66.7855C79.1908 66.7894 79.188 66.7932 79.1851 66.7969M79.1935 66.7855C79.1982 66.7828 79.2001 66.7814 79.2001 66.7815C79.2 66.7816 79.1936 66.7864 79.1851 66.7969M79.1935 66.7855C79.2539 66.698 79.2724 66.5514 79.1854 66.3206C79.0963 66.0844 78.912 65.8096 78.6573 65.54C78.1441 64.9968 77.409 64.5401 76.7729 64.4663M79.1851 66.7969L79.1851 66.7969L79.1812 66.8022C79.1826 66.8003 79.1839 66.7985 79.1851 66.7969ZM76.7729 64.4663C76.7732 64.4663 76.7736 64.4664 76.7739 64.4664L76.7988 64.232M76.7729 64.4663C76.7725 64.4663 76.7722 64.4662 76.7718 64.4662L76.7988 64.232M53.7732 30.7387L53.7739 30.7378C54.0428 30.3527 54.438 30.068 54.8426 29.9499C55.2442 29.8326 55.6381 29.8819 55.9438 30.1337C56.2538 30.389 56.5173 30.8885 56.5713 31.763C56.6253 32.636 56.4676 33.8557 55.9644 35.5053C55.7492 36.2045 55.5754 36.7425 55.4214 37.1538C55.2663 37.5681 55.137 37.8379 55.0152 38.0105C54.8978 38.1769 54.8002 38.2353 54.7075 38.2571C54.602 38.2819 54.4622 38.2697 54.2386 38.2119C53.8017 38.091 53.45 37.7296 53.1944 37.1685C52.939 36.6079 52.7945 35.8771 52.76 35.085C52.6907 33.493 53.0682 31.7381 53.7732 30.7387ZM63.7288 45.4337L63.7303 45.4326C64.3113 45.0316 65.7479 44.3589 67.3973 43.761C69.0442 43.1639 70.863 42.656 72.203 42.5666L72.2049 42.5664C73.3099 42.4838 74.0796 42.924 74.3561 43.4101C74.4914 43.6481 74.5118 43.8962 74.4123 44.1254C74.3107 44.3594 74.0688 44.6083 73.6115 44.8041L73.6113 44.8037L73.5991 44.8098C71.6755 45.7693 68.5213 46.9532 66.0289 47.4594C64.8499 47.6911 63.8779 47.3813 63.417 46.9263C63.1899 46.7022 63.0978 46.4574 63.1285 46.2243C63.1597 45.9887 63.3239 45.7084 63.7288 45.4337ZM36.2968 23.5179L36.2978 23.5182C37.1385 23.7295 37.803 24.4084 38.2645 25.635C38.727 26.8644 38.9702 28.6091 38.9816 30.8726L38.9817 30.8732C38.9872 31.5903 38.9602 32.1332 38.8903 32.5232C38.8181 32.9257 38.71 33.1045 38.6095 33.1739C38.5267 33.231 38.3806 33.2562 38.0823 33.1299C37.7881 33.0054 37.4073 32.758 36.917 32.3818C36.7487 32.2517 36.5781 32.0163 36.4165 31.6772C36.2568 31.3419 36.1148 30.9242 35.9939 30.4516C35.7521 29.5066 35.6003 28.3645 35.5514 27.2723C35.5023 26.1776 35.5574 25.1502 35.7204 24.4309C35.8026 24.0677 35.9072 23.8076 36.0211 23.6554C36.0766 23.5813 36.1264 23.5434 36.1665 23.5255C36.2026 23.5095 36.2429 23.5041 36.2968 23.5179ZM54.6145 65.4935C54.6106 65.4982 54.6055 65.5043 54.6018 65.5091L54.7917 65.6487C54.7918 65.6487 54.7918 65.6486 54.7919 65.6485C54.7998 65.6402 55.0318 65.4403 55.3956 65.1268C56.6089 64.0815 59.2888 61.7726 60.0193 61.0865C60.0259 61.0876 60.0322 61.0887 60.0382 61.0898C60.0797 61.0973 60.0937 61.1021 60.0917 61.1013C60.09 61.1007 60.0838 61.0982 60.0751 61.0934C60.0688 61.0899 60.0551 61.0818 60.0394 61.0676C60.1258 60.9859 60.1815 60.9299 60.1997 60.9051C60.2067 60.8955 60.1927 60.8857 60.1601 60.8759C60.1219 60.8644 60.0585 60.8528 59.9734 60.8416C59.9816 60.811 59.9953 60.7852 60.0099 60.7654C60.0099 60.7653 60.0097 60.7656 60.0091 60.7662C60.0053 60.7704 59.9862 60.7915 59.9401 60.8364C59.9398 60.8367 59.9395 60.8369 59.9392 60.8372L54.6145 65.4935ZM23.9897 41.0757L23.9881 41.0755C23.7985 41.0498 23.5552 40.9541 23.2499 40.7635C22.9468 40.5742 22.5957 40.2999 22.1924 39.9336C21.3858 39.2009 20.3882 38.1171 19.1697 36.6558C18.1984 35.4786 17.6803 34.6941 17.4569 34.1948C17.3437 33.9418 17.3198 33.7909 17.3272 33.7121C17.3305 33.6774 17.3391 33.6654 17.3408 33.6632C17.3422 33.6613 17.3473 33.6548 17.3669 33.6477C17.4157 33.6299 17.5136 33.6236 17.6716 33.6556C17.8227 33.6862 18.001 33.7459 18.1914 33.8268C18.5721 33.9886 18.9732 34.2231 19.2552 34.4304C20.7472 35.5274 22.4643 37.6535 22.8992 38.192C22.9381 38.2402 22.9667 38.2756 22.984 38.2965C23.5158 38.9384 23.9228 39.4652 24.2111 39.8905C24.5032 40.3215 24.659 40.6278 24.71 40.8328C24.735 40.9334 24.7289 40.9873 24.721 41.012C24.7159 41.0281 24.7074 41.043 24.6744 41.06C24.6341 41.0808 24.5618 41.1009 24.4415 41.1062C24.3234 41.1114 24.1738 41.1019 23.9897 41.0757Z" fill="#5F55D2" stroke="#F3F7F8" stroke-width="0.47138"/>
</svg>
