<svg width="70" height="70" viewBox="0 0 70 70" fill="none" xmlns="http://www.w3.org/2000/svg">
<path d="M29.9889 9.20395L29.9889 9.20396L29.991 9.20312C30.1973 9.12059 30.5686 9.05071 31.0142 9.01522C31.4539 8.9802 31.943 8.98043 32.3742 9.02663L32.3742 9.02666L32.3782 9.02702C33.9765 9.17113 37.1411 9.29369 40.5877 9.42718C41.3665 9.45734 42.1596 9.48806 42.9524 9.51971C47.2661 9.69193 51.5619 9.89162 53.5142 10.1773L53.5153 10.1775C54.3603 10.297 54.9134 10.4372 55.2393 10.6004C55.4005 10.6811 55.4867 10.7581 55.53 10.8228C55.5684 10.8803 55.5819 10.9409 55.5682 11.0211C55.5531 11.1096 55.5038 11.2251 55.4029 11.373C55.303 11.5194 55.1613 11.685 54.9775 11.8726C54.6096 12.2483 54.0947 12.6909 53.4621 13.2194C52.1846 14.2707 49.4784 17.0261 46.8274 19.7969C44.9172 21.7934 43.0266 23.8076 41.7056 25.215C41.1898 25.7646 40.7608 26.2216 40.4514 26.549L40.0967 26.9241L40.6126 26.9452L45.3158 27.1372L45.3165 27.1372C45.5034 27.1443 45.6854 27.151 45.8626 27.1575C47.5024 27.2181 48.7242 27.2632 49.5355 27.4262C49.9867 27.5169 50.267 27.6367 50.4212 27.7809C50.5553 27.9064 50.616 28.0708 50.5655 28.3434C50.512 28.6325 50.3354 29.02 50.0036 29.5388C49.6746 30.0534 49.2058 30.678 48.5894 31.4382C47.4908 32.793 45.938 34.5607 43.9026 36.8776C43.6533 37.1614 43.3969 37.4533 43.1331 37.7537L43.133 37.7538C32.2607 50.1532 27.3377 55.2909 25.0504 57.678C24.942 57.7911 24.8395 57.8981 24.7426 57.9994L24.9124 58.1618L24.7426 57.9994C23.5035 59.2941 22.4603 60.1277 21.6131 60.5963C20.7597 61.0683 20.1427 61.1499 19.7307 61.0142C19.3347 60.8838 19.0555 60.5264 18.9336 59.9281C18.8111 59.3275 18.8581 58.5196 19.0933 57.5789L19.0937 57.5772C19.7946 54.678 21.2949 49.9201 23.3417 44.2274L23.342 44.2266C23.6337 43.4058 23.897 42.6793 24.1293 42.0385C24.443 41.173 24.7001 40.4637 24.894 39.8892C25.0631 39.3882 25.1876 38.9798 25.261 38.6521C25.333 38.3308 25.3631 38.0578 25.3185 37.8413C25.2952 37.7283 25.2501 37.6231 25.174 37.5353C25.0974 37.447 25.0007 37.3893 24.8951 37.3542C24.6954 37.2879 24.4466 37.297 24.1787 37.3323C23.904 37.3686 23.5702 37.4386 23.1837 37.5224C23.1312 37.5338 23.0777 37.5454 23.023 37.5573C22.6719 37.6337 22.2754 37.72 21.8284 37.806C20.1191 38.1335 18.7504 38.3517 17.6727 38.4491C16.5897 38.547 15.8245 38.5203 15.3098 38.3745C14.8112 38.2334 14.5737 37.9906 14.4824 37.6478C14.383 37.2742 14.4447 36.7389 14.6742 35.9947C16.1678 31.2125 19.8389 24.8615 23.1395 19.6206C24.6623 17.2027 26.1024 15.0268 27.2076 13.3569C27.2986 13.2195 27.3873 13.0854 27.4735 12.955C28.0403 12.0982 28.5045 11.3937 28.8239 10.8862C28.9834 10.6329 29.1091 10.425 29.1941 10.2701C29.2363 10.1933 29.2712 10.1245 29.2953 10.0673C29.3073 10.0389 29.3188 10.0081 29.3269 9.97747C29.3332 9.95373 29.3459 9.90053 29.3352 9.83994L29.335 9.83874C29.3183 9.74712 29.3417 9.65016 29.4389 9.54156C29.5412 9.42722 29.7201 9.30848 29.9889 9.20395ZM49.0266 12.3976L49.4866 12.0172L48.8908 11.9819C48.7383 11.9728 48.5921 11.9641 48.4512 11.9558C45.1036 11.7569 44.7476 11.7358 33.0496 11.2138L32.9098 11.2076L32.8377 11.3276C31.0089 14.3725 29.5822 16.7125 28.3917 18.6649C25.4197 23.5391 23.9201 25.9985 21.313 30.984C20.2912 32.9 19.685 34.0871 19.4036 34.7764C19.3328 34.9498 19.2802 35.0973 19.2466 35.2204C19.2143 35.3389 19.1938 35.4549 19.2038 35.5573C19.2146 35.6691 19.269 35.8024 19.4153 35.8626C19.5314 35.9104 19.6522 35.8859 19.7315 35.8625L19.7315 35.8626L19.7359 35.8612C19.8678 35.8195 20.24 35.7481 20.8199 35.6546C21.3909 35.5625 22.1439 35.4518 23.021 35.3299C24.775 35.0862 27.0211 34.7985 29.2917 34.5266L29.2922 34.5266C29.9419 34.4473 30.32 34.5195 30.5289 34.7223C30.7373 34.9247 30.8568 35.3355 30.7659 36.1593C30.5859 37.7914 29.6235 40.7116 27.7639 45.6972C27.2676 47.0101 26.835 48.1955 26.5343 49.0534C26.3841 49.4821 26.2661 49.8308 26.1895 50.0732C26.1515 50.1937 26.1224 50.2917 26.1048 50.3613C26.0964 50.3945 26.0884 50.4295 26.0844 50.46C26.0828 50.472 26.0792 50.5013 26.0829 50.5348C26.0845 50.5494 26.0899 50.5901 26.1159 50.6338C26.1489 50.6892 26.2186 50.7499 26.3201 50.7499C26.3727 50.7499 26.4118 50.7325 26.4242 50.7268C26.4416 50.7188 26.4556 50.7101 26.4644 50.7042C26.4825 50.6923 26.4993 50.6787 26.5127 50.6673C26.5406 50.6437 26.5741 50.6122 26.6112 50.5755C26.6865 50.5013 26.79 50.3933 26.9192 50.2546C27.1781 49.9766 27.5477 49.5674 28.0164 49.0409C28.9542 47.9876 30.2928 46.46 31.9446 44.5621C35.2486 40.7662 39.8082 35.4866 44.9275 29.5515L45.2626 29.163H44.7495C44.1361 29.163 43.5567 29.1642 43.0099 29.1654C40.4523 29.1708 38.6103 29.1747 37.3549 29.0443C36.5903 28.9648 36.0802 28.8383 35.7656 28.655C35.6127 28.566 35.5133 28.4676 35.4507 28.3606C35.3884 28.2541 35.3539 28.1242 35.3539 27.9582C35.3539 27.9111 35.372 27.8207 35.4287 27.677C35.4833 27.5384 35.5663 27.3685 35.6772 27.1691C35.899 26.7706 36.2232 26.2708 36.6291 25.6961C37.4404 24.5475 38.5667 23.1152 39.8221 21.6224C42.3354 18.6336 45.3476 15.4236 47.362 13.7741L47.3628 13.7734L49.0266 12.3976Z" fill="#5F55D2" stroke="#F3F7F8" stroke-width="0.47"/>
</svg>
