<svg width="117" height="117" viewBox="0 0 117 117" fill="none" xmlns="http://www.w3.org/2000/svg">
<g clip-path="url(#clip0_1_189)">
<path d="M46.361 37.1252C46.025 37.3448 45.5926 39.5733 45.2387 42.9019C44.049 54.286 43.3673 53.8852 44.2235 54.5312C45.1401 55.2227 45.2622 54.785 46.3767 47.4885C47.5683 39.6636 47.5717 36.3733 46.361 37.1252Z" fill="#5F55D2"/>
<path d="M35.4446 49.9136C35.1695 49.9521 35.1538 50.1486 35.2536 51.1701C35.4124 52.6903 36.5172 54.1105 37.0176 53.4472C37.415 52.8954 36.0582 49.8278 35.4446 49.9136Z" fill="#5F55D2"/>
<path d="M30.5584 52.3017C26.2014 45.9867 24.5515 43.9849 23.5547 43.8763C22.7423 43.7742 22.898 44.2702 24.1775 45.8601C25.2825 47.2047 27.1786 49.8085 28.9809 52.4362C30.4582 54.5916 30.8618 55.0097 31.5712 55.2232C32.5584 55.4949 32.3306 54.8688 30.5584 52.3017Z" fill="#5F55D2"/>
<path d="M58.0809 41.4067C57.754 41.6142 56.2947 44.8277 55.5545 46.9375C55.3778 47.4476 54.8242 48.7331 54.3348 49.7832C53.3682 51.8168 53.3556 51.9589 54.043 52.4775C54.6942 52.9688 54.6761 52.9928 56.1123 49.4589C58.6164 43.3055 59.2614 40.6698 58.0809 41.4067Z" fill="#5F55D2"/>
<path d="M34.2823 43.3027C34.574 44.8474 34.3084 45.8014 35.2008 46.4747C36.6358 47.5574 36.7689 47.5064 36.3576 44.49C35.597 38.9013 34.2322 34.3895 33.2716 34.3082C32.3472 34.2542 33.5677 37.5027 34.2823 43.3027Z" fill="#5F55D2"/>
<path d="M79.9451 73.6285C81.4439 73.5482 82.6474 73.2072 82.975 72.773C83.4299 72.17 82.8188 71.4249 81.8248 71.413C75.2295 71.3005 67.5032 72.5867 67.7507 73.7386C67.9952 74.8693 69.0525 74.9478 74.4657 74.2442C76.8504 73.9428 79.3136 73.6629 79.9451 73.6285Z" fill="#5F55D2"/>
<path d="M70.4159 51.2432C69.1231 52.1792 66.5718 54.7582 60.4878 59.6868C59.2765 60.6653 59.2584 60.6893 59.3713 61.3422C59.4665 61.8682 59.9875 62.4318 60.4346 62.4663C60.8061 62.5006 69.189 55.5784 71.8641 53.036C72.8882 52.0298 71.8934 50.1628 70.4159 51.2432Z" fill="#5F55D2"/>
<path d="M81.608 82.7366C77.1686 80.9957 68.4587 78.6443 67.6209 78.9773C67.0371 79.1992 67.8011 80.419 68.7157 80.7116L72.1328 81.7758C77.3884 83.4133 84.1152 85.0821 84.3245 84.8048C84.74 84.2289 84.0043 83.674 81.608 82.7366Z" fill="#5F55D2"/>
<path d="M77.7351 60.3795C77.2662 60.5746 75.9324 61.0633 72.1372 62.2308C70.4196 62.7516 67.201 64.1081 66.9826 64.3975C66.5459 64.9763 69.6964 64.2119 75.5149 62.319C76.7729 61.9056 77.9855 61.5525 78.2212 61.5411C79.3182 61.4415 78.6123 60.0195 77.7351 60.3795Z" fill="#5F55D2"/>
</g>
<defs>
<clipPath id="clip0_1_189">
<rect width="83.2382" height="83.2382" fill="white" transform="translate(50.1328) rotate(37.0334)"/>
</clipPath>
</defs>
</svg>
